<?xml version="1.0" standalone="no"?>
<!DOCTYPE svg PUBLIC "-//W3C//DTD SVG 20010904//EN"
 "http://www.w3.org/TR/2001/REC-SVG-20010904/DTD/svg10.dtd">
<svg version="1.0" xmlns="http://www.w3.org/2000/svg"
 width="150.000000pt" height="112.000000pt" viewBox="0 0 150.000000 112.000000"
 preserveAspectRatio="xMidYMid meet">

<g transform="translate(0.000000,112.000000) scale(0.100000,-0.100000)"
fill="#000000" stroke="none">
<path d="M606 1005 c-4 -15 -16 -27 -31 -31 -14 -3 -25 -12 -25 -20 0 -17 14
-18 41 -4 12 7 19 7 19 1 0 -14 -30 -41 -46 -41 -8 0 -14 -7 -14 -15 0 -18 14
-19 41 -5 16 9 19 7 19 -15 0 -20 -6 -27 -30 -31 -54 -11 -35 -29 27 -25 56 3
133 -13 133 -28 0 -4 -20 -22 -45 -40 -40 -29 -49 -31 -95 -25 -42 6 -50 4
-50 -10 0 -12 10 -16 48 -16 59 0 126 -18 221 -59 80 -34 151 -50 151 -33 0 5
-12 13 -27 16 -47 11 -243 90 -243 98 0 4 21 20 48 35 42 25 57 28 135 28 81
0 101 5 77 20 -16 10 -12 46 6 60 14 10 10 16 -32 51 -68 56 -68 56 -100 32
-19 -15 -29 -18 -32 -10 -6 20 -22 13 -22 -10 0 -12 -7 -30 -16 -40 -16 -16
-16 -18 0 -24 9 -3 16 -17 16 -31 0 -20 -4 -24 -17 -18 -29 11 -66 23 -95 29
-22 5 -28 12 -28 32 0 21 3 23 19 14 27 -14 41 -13 41 5 0 8 -6 15 -14 15 -16
0 -46 27 -46 41 0 6 7 6 19 -1 27 -14 41 -13 41 4 0 8 -11 17 -25 20 -15 4
-27 16 -31 31 -8 32 -30 32 -38 0z m324 -151 c0 -30 -3 -34 -25 -34 -18 0 -25
5 -25 20 0 28 -28 25 -32 -2 -2 -15 -11 -24 -25 -26 -20 -3 -23 1 -23 35 0 31
6 43 32 64 l32 27 33 -25 c26 -20 33 -33 33 -59z"/>
<path d="M185 325 c-51 -50 -17 -145 53 -145 30 0 71 33 54 44 -5 3 -15 -1
-22 -9 -29 -35 -90 -2 -90 50 0 52 61 85 90 50 7 -8 17 -12 22 -9 5 3 2 14 -8
25 -24 27 -70 24 -99 -6z"/>
<path d="M347 294 c-12 -13 5 -25 19 -13 17 14 44 5 44 -16 0 -10 -10 -15 -30
-15 -34 0 -53 -25 -39 -52 11 -21 40 -23 57 -6 10 10 15 10 23 -2 6 -10 9 3 7
45 l-3 60 -35 3 c-20 2 -39 0 -43 -4z m63 -69 c0 -9 -7 -18 -15 -21 -23 -9
-45 3 -39 21 8 20 54 20 54 0z"/>
<path d="M470 238 c0 -32 4 -58 10 -58 6 0 10 20 10 44 0 46 19 72 45 62 11
-4 15 -20 15 -56 0 -27 5 -50 10 -50 6 0 10 20 10 44 0 46 19 72 45 62 11 -4
15 -20 15 -56 0 -28 5 -50 10 -50 7 0 10 22 8 58 -3 54 -4 57 -31 60 -16 2
-35 -2 -43 -9 -10 -8 -14 -8 -14 0 0 6 -18 10 -45 9 l-45 -2 0 -58z"/>
<path d="M690 220 c0 -47 4 -80 10 -80 6 0 10 13 10 29 0 29 1 29 31 18 28
-11 33 -10 50 12 35 43 18 101 -31 101 -16 0 -32 -5 -36 -12 -5 -8 -2 -9 10
-5 28 11 58 -11 54 -40 -7 -58 -72 -55 -74 3 -2 48 -4 54 -14 54 -6 0 -10 -33
-10 -80z"/>
<path d="M857 293 c-15 -14 -6 -22 12 -11 15 9 23 9 35 -1 25 -21 19 -30 -21
-33 -33 -3 -38 -7 -41 -30 -3 -22 2 -29 23 -34 15 -4 31 -2 38 5 8 8 4 11 -17
11 -21 0 -27 4 -24 18 4 22 53 24 54 2 2 -34 4 -40 14 -40 13 0 13 76 0 101
-10 19 -59 27 -73 12z"/>
<path d="M980 281 c-27 -51 3 -96 57 -88 36 6 38 5 23 -24 -11 -20 -45 -26
-55 -9 -4 6 -11 7 -17 4 -7 -5 -4 -12 7 -21 27 -19 43 -16 70 12 21 20 25 34
25 82 l0 59 -50 2 c-40 2 -51 -2 -60 -17z m74 -7 c21 -20 20 -30 -4 -54 -16
-16 -25 -18 -40 -10 -25 13 -26 55 -2 69 23 14 28 14 46 -5z"/>
<path d="M1130 238 c0 -32 4 -58 10 -58 6 0 10 22 10 49 0 36 4 51 16 55 27
10 44 -13 44 -60 0 -24 5 -44 10 -44 15 0 12 96 -4 109 -7 6 -30 10 -50 9
l-36 -3 0 -57z"/>
<path d="M1277 282 c-23 -25 -21 -58 3 -82 24 -24 49 -25 76 -5 18 15 17 16
-14 10 -20 -4 -39 -2 -47 5 -26 21 -17 30 30 30 37 0 45 3 45 18 0 42 -63 58
-93 24z m71 -14 c3 -15 -4 -18 -33 -18 -33 0 -35 2 -25 21 14 24 53 22 58 -3z"/>
</g>
</svg>
